<mxfile host="app.diagrams.net" modified="2024-07-22T10:39:32.012Z" agent="Mozilla/5.0 (Windows NT 10.0; Win64; x64) AppleWebKit/537.36 (KHTML, like Gecko) Chrome/126.0.0.0 Safari/537.36" etag="HoYlzDzUPoMGFe0nYKDK" version="24.7.1" type="device">
  <diagram name="Page-1" id="owGFzKThW8cVhO2e2pYm">
    <mxGraphModel dx="2758" dy="2284" grid="0" gridSize="10" guides="1" tooltips="1" connect="1" arrows="1" fold="1" page="1" pageScale="1" pageWidth="850" pageHeight="1100" math="0" shadow="0">
      <root>
        <mxCell id="0" />
        <mxCell id="1" parent="0" />
        <mxCell id="tpX7xEVErLK_PkLkETVq-5" style="edgeStyle=orthogonalEdgeStyle;rounded=0;orthogonalLoop=1;jettySize=auto;html=1;entryX=0.442;entryY=0;entryDx=0;entryDy=0;entryPerimeter=0;" parent="1" source="tpX7xEVErLK_PkLkETVq-1" target="tpX7xEVErLK_PkLkETVq-2" edge="1">
          <mxGeometry relative="1" as="geometry">
            <mxPoint x="150" y="110" as="targetPoint" />
          </mxGeometry>
        </mxCell>
        <mxCell id="tpX7xEVErLK_PkLkETVq-7" style="edgeStyle=orthogonalEdgeStyle;rounded=0;orthogonalLoop=1;jettySize=auto;html=1;exitX=1;exitY=0.5;exitDx=0;exitDy=0;entryX=0.421;entryY=0.044;entryDx=0;entryDy=0;entryPerimeter=0;" parent="1" source="tpX7xEVErLK_PkLkETVq-1" target="tpX7xEVErLK_PkLkETVq-4" edge="1">
          <mxGeometry relative="1" as="geometry">
            <mxPoint x="640" y="110" as="targetPoint" />
          </mxGeometry>
        </mxCell>
        <mxCell id="tpX7xEVErLK_PkLkETVq-23" style="edgeStyle=orthogonalEdgeStyle;rounded=0;orthogonalLoop=1;jettySize=auto;html=1;exitX=0.5;exitY=0;exitDx=0;exitDy=0;entryX=0.5;entryY=1;entryDx=0;entryDy=0;" parent="1" source="tpX7xEVErLK_PkLkETVq-1" target="tpX7xEVErLK_PkLkETVq-12" edge="1">
          <mxGeometry relative="1" as="geometry" />
        </mxCell>
        <mxCell id="tpX7xEVErLK_PkLkETVq-25" style="edgeStyle=orthogonalEdgeStyle;rounded=0;orthogonalLoop=1;jettySize=auto;html=1;exitX=0.75;exitY=0;exitDx=0;exitDy=0;entryX=0;entryY=0.5;entryDx=0;entryDy=0;" parent="1" source="tpX7xEVErLK_PkLkETVq-32" target="tpX7xEVErLK_PkLkETVq-24" edge="1">
          <mxGeometry relative="1" as="geometry">
            <mxPoint x="440" y="70" as="targetPoint" />
            <Array as="points">
              <mxPoint x="653" y="80" />
            </Array>
          </mxGeometry>
        </mxCell>
        <mxCell id="32tMZFrnywZfzG7zDJy--73" style="edgeStyle=orthogonalEdgeStyle;rounded=0;orthogonalLoop=1;jettySize=auto;html=1;exitX=1;exitY=0;exitDx=0;exitDy=0;" edge="1" parent="1" source="tpX7xEVErLK_PkLkETVq-1">
          <mxGeometry relative="1" as="geometry">
            <mxPoint x="760" y="441" as="targetPoint" />
          </mxGeometry>
        </mxCell>
        <mxCell id="tpX7xEVErLK_PkLkETVq-1" value="User" style="rounded=0;whiteSpace=wrap;html=1;" parent="1" vertex="1">
          <mxGeometry x="350" y="160" width="120" height="60" as="geometry" />
        </mxCell>
        <mxCell id="tpX7xEVErLK_PkLkETVq-38" style="edgeStyle=orthogonalEdgeStyle;rounded=0;orthogonalLoop=1;jettySize=auto;html=1;exitX=0;exitY=0.5;exitDx=0;exitDy=0;entryX=0.5;entryY=0;entryDx=0;entryDy=0;" parent="1" source="tpX7xEVErLK_PkLkETVq-2" target="tpX7xEVErLK_PkLkETVq-36" edge="1">
          <mxGeometry relative="1" as="geometry">
            <mxPoint x="10" y="319.7692307692305" as="targetPoint" />
          </mxGeometry>
        </mxCell>
        <mxCell id="tpX7xEVErLK_PkLkETVq-41" style="edgeStyle=orthogonalEdgeStyle;rounded=0;orthogonalLoop=1;jettySize=auto;html=1;exitX=1;exitY=0.5;exitDx=0;exitDy=0;entryX=0;entryY=0;entryDx=0;entryDy=0;" parent="1" source="tpX7xEVErLK_PkLkETVq-2" target="tpX7xEVErLK_PkLkETVq-35" edge="1">
          <mxGeometry relative="1" as="geometry" />
        </mxCell>
        <mxCell id="tpX7xEVErLK_PkLkETVq-2" value="Profile" style="ellipse;whiteSpace=wrap;html=1;" parent="1" vertex="1">
          <mxGeometry x="120" y="280" width="140" height="90" as="geometry" />
        </mxCell>
        <mxCell id="tpX7xEVErLK_PkLkETVq-3" value="Authentication" style="ellipse;whiteSpace=wrap;html=1;" parent="1" vertex="1">
          <mxGeometry x="380" y="290" width="120" height="80" as="geometry" />
        </mxCell>
        <mxCell id="tpX7xEVErLK_PkLkETVq-4" value="Admin profile" style="ellipse;whiteSpace=wrap;html=1;" parent="1" vertex="1">
          <mxGeometry x="550" y="280" width="120" height="80" as="geometry" />
        </mxCell>
        <mxCell id="tpX7xEVErLK_PkLkETVq-6" style="edgeStyle=orthogonalEdgeStyle;rounded=0;orthogonalLoop=1;jettySize=auto;html=1;exitX=0.5;exitY=1;exitDx=0;exitDy=0;entryX=0.579;entryY=0.069;entryDx=0;entryDy=0;entryPerimeter=0;" parent="1" source="tpX7xEVErLK_PkLkETVq-1" target="tpX7xEVErLK_PkLkETVq-3" edge="1">
          <mxGeometry relative="1" as="geometry" />
        </mxCell>
        <mxCell id="tpX7xEVErLK_PkLkETVq-17" style="edgeStyle=orthogonalEdgeStyle;rounded=0;orthogonalLoop=1;jettySize=auto;html=1;exitX=1;exitY=0.5;exitDx=0;exitDy=0;entryX=0.608;entryY=1.038;entryDx=0;entryDy=0;entryPerimeter=0;" parent="1" source="tpX7xEVErLK_PkLkETVq-12" target="tpX7xEVErLK_PkLkETVq-16" edge="1">
          <mxGeometry relative="1" as="geometry">
            <mxPoint x="650" y="20" as="targetPoint" />
          </mxGeometry>
        </mxCell>
        <mxCell id="tpX7xEVErLK_PkLkETVq-18" style="edgeStyle=orthogonalEdgeStyle;rounded=0;orthogonalLoop=1;jettySize=auto;html=1;exitX=0;exitY=0.5;exitDx=0;exitDy=0;entryX=0.425;entryY=1.05;entryDx=0;entryDy=0;entryPerimeter=0;" parent="1" source="tpX7xEVErLK_PkLkETVq-12" target="tpX7xEVErLK_PkLkETVq-14" edge="1">
          <mxGeometry relative="1" as="geometry">
            <mxPoint x="160" y="20" as="targetPoint" />
          </mxGeometry>
        </mxCell>
        <mxCell id="tpX7xEVErLK_PkLkETVq-19" style="edgeStyle=orthogonalEdgeStyle;rounded=0;orthogonalLoop=1;jettySize=auto;html=1;exitX=0.5;exitY=0;exitDx=0;exitDy=0;entryX=0.5;entryY=1;entryDx=0;entryDy=0;" parent="1" source="tpX7xEVErLK_PkLkETVq-12" target="tpX7xEVErLK_PkLkETVq-15" edge="1">
          <mxGeometry relative="1" as="geometry" />
        </mxCell>
        <mxCell id="tpX7xEVErLK_PkLkETVq-12" value="Products" style="rounded=0;whiteSpace=wrap;html=1;" parent="1" vertex="1">
          <mxGeometry x="350" y="-90" width="120" height="60" as="geometry" />
        </mxCell>
        <mxCell id="tpX7xEVErLK_PkLkETVq-14" value="product_id" style="ellipse;whiteSpace=wrap;html=1;" parent="1" vertex="1">
          <mxGeometry x="120" y="-230" width="120" height="80" as="geometry" />
        </mxCell>
        <mxCell id="tpX7xEVErLK_PkLkETVq-15" value="Price" style="ellipse;whiteSpace=wrap;html=1;" parent="1" vertex="1">
          <mxGeometry x="350" y="-230" width="120" height="80" as="geometry" />
        </mxCell>
        <mxCell id="tpX7xEVErLK_PkLkETVq-16" value="Information" style="ellipse;whiteSpace=wrap;html=1;" parent="1" vertex="1">
          <mxGeometry x="570" y="-230" width="120" height="80" as="geometry" />
        </mxCell>
        <mxCell id="tpX7xEVErLK_PkLkETVq-30" style="edgeStyle=orthogonalEdgeStyle;rounded=0;orthogonalLoop=1;jettySize=auto;html=1;exitX=1;exitY=0.5;exitDx=0;exitDy=0;entryX=0;entryY=0.5;entryDx=0;entryDy=0;" parent="1" source="tpX7xEVErLK_PkLkETVq-24" target="tpX7xEVErLK_PkLkETVq-27" edge="1">
          <mxGeometry relative="1" as="geometry" />
        </mxCell>
        <mxCell id="tpX7xEVErLK_PkLkETVq-31" style="edgeStyle=orthogonalEdgeStyle;rounded=0;orthogonalLoop=1;jettySize=auto;html=1;exitX=0.5;exitY=1;exitDx=0;exitDy=0;entryX=0;entryY=0.5;entryDx=0;entryDy=0;" parent="1" source="tpX7xEVErLK_PkLkETVq-24" target="tpX7xEVErLK_PkLkETVq-28" edge="1">
          <mxGeometry relative="1" as="geometry">
            <mxPoint x="880" y="270" as="targetPoint" />
          </mxGeometry>
        </mxCell>
        <mxCell id="32tMZFrnywZfzG7zDJy--4" style="edgeStyle=orthogonalEdgeStyle;rounded=0;orthogonalLoop=1;jettySize=auto;html=1;exitX=1;exitY=1;exitDx=0;exitDy=0;entryX=0;entryY=1;entryDx=0;entryDy=0;" edge="1" parent="1" source="tpX7xEVErLK_PkLkETVq-24" target="32tMZFrnywZfzG7zDJy--3">
          <mxGeometry relative="1" as="geometry">
            <mxPoint x="940" y="270" as="targetPoint" />
          </mxGeometry>
        </mxCell>
        <mxCell id="32tMZFrnywZfzG7zDJy--11" style="edgeStyle=orthogonalEdgeStyle;rounded=0;orthogonalLoop=1;jettySize=auto;html=1;exitX=1;exitY=0;exitDx=0;exitDy=0;entryX=0;entryY=0.5;entryDx=0;entryDy=0;" edge="1" parent="1" source="tpX7xEVErLK_PkLkETVq-24" target="32tMZFrnywZfzG7zDJy--5">
          <mxGeometry relative="1" as="geometry">
            <mxPoint x="940.454545454545" y="-40" as="targetPoint" />
          </mxGeometry>
        </mxCell>
        <mxCell id="32tMZFrnywZfzG7zDJy--37" style="edgeStyle=orthogonalEdgeStyle;rounded=0;orthogonalLoop=1;jettySize=auto;html=1;exitX=0;exitY=0;exitDx=0;exitDy=0;entryX=1;entryY=0.5;entryDx=0;entryDy=0;" edge="1" parent="1" source="tpX7xEVErLK_PkLkETVq-24" target="32tMZFrnywZfzG7zDJy--36">
          <mxGeometry relative="1" as="geometry">
            <mxPoint x="690" y="-60" as="targetPoint" />
          </mxGeometry>
        </mxCell>
        <mxCell id="tpX7xEVErLK_PkLkETVq-24" value="Orders" style="rounded=0;whiteSpace=wrap;html=1;" parent="1" vertex="1">
          <mxGeometry x="820" y="50" width="120" height="60" as="geometry" />
        </mxCell>
        <mxCell id="tpX7xEVErLK_PkLkETVq-27" value="Order_id" style="ellipse;whiteSpace=wrap;html=1;" parent="1" vertex="1">
          <mxGeometry x="1020" y="40" width="120" height="80" as="geometry" />
        </mxCell>
        <mxCell id="tpX7xEVErLK_PkLkETVq-28" value="" style="ellipse;whiteSpace=wrap;html=1;" parent="1" vertex="1">
          <mxGeometry x="960" y="380" width="120" height="80" as="geometry" />
        </mxCell>
        <mxCell id="tpX7xEVErLK_PkLkETVq-33" value="" style="edgeStyle=orthogonalEdgeStyle;rounded=0;orthogonalLoop=1;jettySize=auto;html=1;exitX=0.75;exitY=0;exitDx=0;exitDy=0;entryX=0;entryY=0.5;entryDx=0;entryDy=0;" parent="1" source="tpX7xEVErLK_PkLkETVq-1" target="tpX7xEVErLK_PkLkETVq-32" edge="1">
          <mxGeometry relative="1" as="geometry">
            <mxPoint x="820" y="80" as="targetPoint" />
            <mxPoint x="440" y="160" as="sourcePoint" />
            <Array as="points">
              <mxPoint x="440" y="60" />
              <mxPoint x="600" y="60" />
            </Array>
          </mxGeometry>
        </mxCell>
        <mxCell id="tpX7xEVErLK_PkLkETVq-32" value="" style="rhombus;whiteSpace=wrap;html=1;" parent="1" vertex="1">
          <mxGeometry x="600" y="40" width="80" height="80" as="geometry" />
        </mxCell>
        <mxCell id="32tMZFrnywZfzG7zDJy--29" style="edgeStyle=orthogonalEdgeStyle;rounded=0;orthogonalLoop=1;jettySize=auto;html=1;exitX=1;exitY=1;exitDx=0;exitDy=0;entryX=0.5;entryY=0;entryDx=0;entryDy=0;" edge="1" parent="1" source="tpX7xEVErLK_PkLkETVq-34" target="32tMZFrnywZfzG7zDJy--21">
          <mxGeometry relative="1" as="geometry" />
        </mxCell>
        <mxCell id="32tMZFrnywZfzG7zDJy--30" style="edgeStyle=orthogonalEdgeStyle;rounded=0;orthogonalLoop=1;jettySize=auto;html=1;exitX=0;exitY=0.5;exitDx=0;exitDy=0;entryX=0.5;entryY=0;entryDx=0;entryDy=0;" edge="1" parent="1" source="tpX7xEVErLK_PkLkETVq-34" target="32tMZFrnywZfzG7zDJy--19">
          <mxGeometry relative="1" as="geometry" />
        </mxCell>
        <mxCell id="tpX7xEVErLK_PkLkETVq-34" value="Contact" style="ellipse;whiteSpace=wrap;html=1;" parent="1" vertex="1">
          <mxGeometry x="140" y="500" width="120" height="80" as="geometry" />
        </mxCell>
        <mxCell id="tpX7xEVErLK_PkLkETVq-35" value="profile_id" style="ellipse;whiteSpace=wrap;html=1;" parent="1" vertex="1">
          <mxGeometry x="330" y="410" width="120" height="80" as="geometry" />
        </mxCell>
        <mxCell id="tpX7xEVErLK_PkLkETVq-36" value="Name" style="ellipse;whiteSpace=wrap;html=1;" parent="1" vertex="1">
          <mxGeometry x="-70" y="410" width="120" height="80" as="geometry" />
        </mxCell>
        <mxCell id="tpX7xEVErLK_PkLkETVq-40" style="edgeStyle=orthogonalEdgeStyle;rounded=0;orthogonalLoop=1;jettySize=auto;html=1;exitX=0.5;exitY=1;exitDx=0;exitDy=0;entryX=0.408;entryY=-0.013;entryDx=0;entryDy=0;entryPerimeter=0;" parent="1" source="tpX7xEVErLK_PkLkETVq-2" target="tpX7xEVErLK_PkLkETVq-34" edge="1">
          <mxGeometry relative="1" as="geometry" />
        </mxCell>
        <mxCell id="32tMZFrnywZfzG7zDJy--1" value="Password" style="ellipse;whiteSpace=wrap;html=1;" vertex="1" parent="1">
          <mxGeometry x="520" y="450" width="120" height="80" as="geometry" />
        </mxCell>
        <mxCell id="32tMZFrnywZfzG7zDJy--2" style="edgeStyle=orthogonalEdgeStyle;rounded=0;orthogonalLoop=1;jettySize=auto;html=1;exitX=1;exitY=1;exitDx=0;exitDy=0;entryX=0.027;entryY=0.266;entryDx=0;entryDy=0;entryPerimeter=0;" edge="1" parent="1" source="tpX7xEVErLK_PkLkETVq-3" target="32tMZFrnywZfzG7zDJy--1">
          <mxGeometry relative="1" as="geometry" />
        </mxCell>
        <mxCell id="32tMZFrnywZfzG7zDJy--3" value="Item" style="ellipse;whiteSpace=wrap;html=1;" vertex="1" parent="1">
          <mxGeometry x="990" y="270" width="120" height="80" as="geometry" />
        </mxCell>
        <mxCell id="32tMZFrnywZfzG7zDJy--16" style="edgeStyle=orthogonalEdgeStyle;rounded=0;orthogonalLoop=1;jettySize=auto;html=1;exitX=0.5;exitY=0;exitDx=0;exitDy=0;entryX=0;entryY=0.5;entryDx=0;entryDy=0;" edge="1" parent="1" source="32tMZFrnywZfzG7zDJy--5" target="32tMZFrnywZfzG7zDJy--12">
          <mxGeometry relative="1" as="geometry">
            <mxPoint x="1180.454545454545" y="-179.99999999999977" as="targetPoint" />
          </mxGeometry>
        </mxCell>
        <mxCell id="32tMZFrnywZfzG7zDJy--18" style="edgeStyle=orthogonalEdgeStyle;rounded=0;orthogonalLoop=1;jettySize=auto;html=1;exitX=0.5;exitY=1;exitDx=0;exitDy=0;" edge="1" parent="1" source="32tMZFrnywZfzG7zDJy--5" target="32tMZFrnywZfzG7zDJy--14">
          <mxGeometry relative="1" as="geometry">
            <mxPoint x="1180.454545454545" y="150" as="targetPoint" />
          </mxGeometry>
        </mxCell>
        <mxCell id="32tMZFrnywZfzG7zDJy--5" value="Payment" style="ellipse;whiteSpace=wrap;html=1;" vertex="1" parent="1">
          <mxGeometry x="1120" y="-90" width="120" height="80" as="geometry" />
        </mxCell>
        <mxCell id="32tMZFrnywZfzG7zDJy--12" value="Payment_id" style="ellipse;whiteSpace=wrap;html=1;" vertex="1" parent="1">
          <mxGeometry x="1310" y="-220" width="120" height="80" as="geometry" />
        </mxCell>
        <mxCell id="32tMZFrnywZfzG7zDJy--13" value="Amount" style="ellipse;whiteSpace=wrap;html=1;" vertex="1" parent="1">
          <mxGeometry x="1320" y="-80" width="120" height="80" as="geometry" />
        </mxCell>
        <mxCell id="32tMZFrnywZfzG7zDJy--14" value="" style="ellipse;whiteSpace=wrap;html=1;" vertex="1" parent="1">
          <mxGeometry x="1300" y="80" width="120" height="80" as="geometry" />
        </mxCell>
        <mxCell id="32tMZFrnywZfzG7zDJy--17" style="edgeStyle=orthogonalEdgeStyle;rounded=0;orthogonalLoop=1;jettySize=auto;html=1;exitX=1;exitY=0.5;exitDx=0;exitDy=0;entryX=0.102;entryY=0.357;entryDx=0;entryDy=0;entryPerimeter=0;" edge="1" parent="1" source="32tMZFrnywZfzG7zDJy--5" target="32tMZFrnywZfzG7zDJy--13">
          <mxGeometry relative="1" as="geometry" />
        </mxCell>
        <mxCell id="32tMZFrnywZfzG7zDJy--19" value="Address" style="ellipse;whiteSpace=wrap;html=1;" vertex="1" parent="1">
          <mxGeometry x="-60" y="740" width="120" height="80" as="geometry" />
        </mxCell>
        <mxCell id="32tMZFrnywZfzG7zDJy--20" value="Phone number" style="ellipse;whiteSpace=wrap;html=1;" vertex="1" parent="1">
          <mxGeometry x="130" y="760" width="120" height="80" as="geometry" />
        </mxCell>
        <mxCell id="32tMZFrnywZfzG7zDJy--21" value="email_id" style="ellipse;whiteSpace=wrap;html=1;" vertex="1" parent="1">
          <mxGeometry x="330" y="750" width="120" height="80" as="geometry" />
        </mxCell>
        <mxCell id="32tMZFrnywZfzG7zDJy--28" style="edgeStyle=orthogonalEdgeStyle;rounded=0;orthogonalLoop=1;jettySize=auto;html=1;exitX=0.5;exitY=1;exitDx=0;exitDy=0;entryX=0.602;entryY=0.005;entryDx=0;entryDy=0;entryPerimeter=0;" edge="1" parent="1" source="tpX7xEVErLK_PkLkETVq-34" target="32tMZFrnywZfzG7zDJy--20">
          <mxGeometry relative="1" as="geometry" />
        </mxCell>
        <mxCell id="32tMZFrnywZfzG7zDJy--38" style="edgeStyle=orthogonalEdgeStyle;rounded=0;orthogonalLoop=1;jettySize=auto;html=1;exitX=0;exitY=0.5;exitDx=0;exitDy=0;entryX=0.75;entryY=1;entryDx=0;entryDy=0;" edge="1" parent="1" source="32tMZFrnywZfzG7zDJy--36" target="tpX7xEVErLK_PkLkETVq-12">
          <mxGeometry relative="1" as="geometry">
            <mxPoint x="440" as="targetPoint" />
          </mxGeometry>
        </mxCell>
        <mxCell id="32tMZFrnywZfzG7zDJy--36" value="one to many&lt;div&gt;&lt;br&gt;&lt;/div&gt;" style="rhombus;whiteSpace=wrap;html=1;" vertex="1" parent="1">
          <mxGeometry x="600" y="-50" width="80" height="80" as="geometry" />
        </mxCell>
        <mxCell id="32tMZFrnywZfzG7zDJy--39" value="Address" style="ellipse;whiteSpace=wrap;html=1;" vertex="1" parent="1">
          <mxGeometry x="-45" y="760" width="90" height="40" as="geometry" />
        </mxCell>
        <mxCell id="32tMZFrnywZfzG7zDJy--41" value="Phone number" style="ellipse;whiteSpace=wrap;html=1;" vertex="1" parent="1">
          <mxGeometry x="150" y="775" width="80" height="50" as="geometry" />
        </mxCell>
        <mxCell id="32tMZFrnywZfzG7zDJy--42" value="email_id" style="ellipse;whiteSpace=wrap;html=1;" vertex="1" parent="1">
          <mxGeometry x="355" y="770" width="70" height="40" as="geometry" />
        </mxCell>
        <mxCell id="32tMZFrnywZfzG7zDJy--45" value="" style="rounded=0;whiteSpace=wrap;html=1;" vertex="1" parent="1">
          <mxGeometry x="820" y="50" width="120" height="60" as="geometry" />
        </mxCell>
        <mxCell id="32tMZFrnywZfzG7zDJy--46" value="Orders" style="rounded=0;whiteSpace=wrap;html=1;" vertex="1" parent="1">
          <mxGeometry x="830" y="60" width="90" height="40" as="geometry" />
        </mxCell>
        <mxCell id="32tMZFrnywZfzG7zDJy--48" style="edgeStyle=orthogonalEdgeStyle;rounded=0;orthogonalLoop=1;jettySize=auto;html=1;exitX=1;exitY=0.5;exitDx=0;exitDy=0;" edge="1" parent="1" source="32tMZFrnywZfzG7zDJy--47" target="32tMZFrnywZfzG7zDJy--49">
          <mxGeometry relative="1" as="geometry">
            <mxPoint x="150" y="40.36363636363603" as="targetPoint" />
          </mxGeometry>
        </mxCell>
        <mxCell id="32tMZFrnywZfzG7zDJy--53" style="edgeStyle=orthogonalEdgeStyle;rounded=0;orthogonalLoop=1;jettySize=auto;html=1;exitX=0;exitY=0.25;exitDx=0;exitDy=0;" edge="1" parent="1" source="32tMZFrnywZfzG7zDJy--47">
          <mxGeometry relative="1" as="geometry">
            <mxPoint x="-160" y="-10" as="targetPoint" />
          </mxGeometry>
        </mxCell>
        <mxCell id="32tMZFrnywZfzG7zDJy--54" style="edgeStyle=orthogonalEdgeStyle;rounded=0;orthogonalLoop=1;jettySize=auto;html=1;exitX=0;exitY=0.75;exitDx=0;exitDy=0;entryX=0.5;entryY=0;entryDx=0;entryDy=0;" edge="1" parent="1" source="32tMZFrnywZfzG7zDJy--47" target="32tMZFrnywZfzG7zDJy--51">
          <mxGeometry relative="1" as="geometry" />
        </mxCell>
        <mxCell id="32tMZFrnywZfzG7zDJy--47" value="Seller" style="rounded=0;whiteSpace=wrap;html=1;" vertex="1" parent="1">
          <mxGeometry x="-60" y="10" width="110" height="60" as="geometry" />
        </mxCell>
        <mxCell id="32tMZFrnywZfzG7zDJy--50" style="edgeStyle=orthogonalEdgeStyle;rounded=0;orthogonalLoop=1;jettySize=auto;html=1;exitX=1;exitY=0.5;exitDx=0;exitDy=0;entryX=0;entryY=1;entryDx=0;entryDy=0;" edge="1" parent="1" source="32tMZFrnywZfzG7zDJy--49" target="tpX7xEVErLK_PkLkETVq-12">
          <mxGeometry relative="1" as="geometry">
            <mxPoint x="360" y="40.36363636363603" as="targetPoint" />
          </mxGeometry>
        </mxCell>
        <mxCell id="32tMZFrnywZfzG7zDJy--49" value="many to many" style="rhombus;whiteSpace=wrap;html=1;" vertex="1" parent="1">
          <mxGeometry x="170" y="0.0036363636360329243" width="80" height="80" as="geometry" />
        </mxCell>
        <mxCell id="32tMZFrnywZfzG7zDJy--51" value="Contact_info" style="ellipse;whiteSpace=wrap;html=1;" vertex="1" parent="1">
          <mxGeometry x="-230" y="100" width="120" height="80" as="geometry" />
        </mxCell>
        <mxCell id="32tMZFrnywZfzG7zDJy--52" value="Seller_id" style="ellipse;whiteSpace=wrap;html=1;" vertex="1" parent="1">
          <mxGeometry x="-240" y="-100" width="120" height="80" as="geometry" />
        </mxCell>
        <mxCell id="32tMZFrnywZfzG7zDJy--56" value="Mode of payment" style="ellipse;whiteSpace=wrap;html=1;" vertex="1" parent="1">
          <mxGeometry x="1320" y="100" width="80" height="40" as="geometry" />
        </mxCell>
        <mxCell id="32tMZFrnywZfzG7zDJy--58" value="Suggestions" style="ellipse;whiteSpace=wrap;html=1;" vertex="1" parent="1">
          <mxGeometry x="980" y="400" width="80" height="40" as="geometry" />
        </mxCell>
        <mxCell id="32tMZFrnywZfzG7zDJy--59" value="one to many" style="rhombus;whiteSpace=wrap;html=1;" vertex="1" parent="1">
          <mxGeometry x="610" y="55" width="60" height="50" as="geometry" />
        </mxCell>
        <mxCell id="32tMZFrnywZfzG7zDJy--70" value="Wishlist" style="rounded=0;whiteSpace=wrap;html=1;" vertex="1" parent="1">
          <mxGeometry x="710" y="453" width="120" height="60" as="geometry" />
        </mxCell>
        <mxCell id="32tMZFrnywZfzG7zDJy--74" value="" style="rounded=0;whiteSpace=wrap;html=1;" vertex="1" parent="1">
          <mxGeometry x="242" y="632" width="120" height="60" as="geometry" />
        </mxCell>
        <mxCell id="32tMZFrnywZfzG7zDJy--82" style="edgeStyle=orthogonalEdgeStyle;rounded=0;orthogonalLoop=1;jettySize=auto;html=1;exitX=0;exitY=1;exitDx=0;exitDy=0;entryX=0.5;entryY=0;entryDx=0;entryDy=0;" edge="1" parent="1" source="32tMZFrnywZfzG7zDJy--75" target="32tMZFrnywZfzG7zDJy--79">
          <mxGeometry relative="1" as="geometry" />
        </mxCell>
        <mxCell id="32tMZFrnywZfzG7zDJy--85" style="edgeStyle=orthogonalEdgeStyle;rounded=0;orthogonalLoop=1;jettySize=auto;html=1;exitX=0.5;exitY=1;exitDx=0;exitDy=0;" edge="1" parent="1" source="32tMZFrnywZfzG7zDJy--75">
          <mxGeometry relative="1" as="geometry">
            <mxPoint x="768" y="620" as="targetPoint" />
          </mxGeometry>
        </mxCell>
        <mxCell id="32tMZFrnywZfzG7zDJy--86" style="edgeStyle=orthogonalEdgeStyle;rounded=0;orthogonalLoop=1;jettySize=auto;html=1;exitX=1;exitY=1;exitDx=0;exitDy=0;entryX=0.5;entryY=0;entryDx=0;entryDy=0;" edge="1" parent="1" source="32tMZFrnywZfzG7zDJy--75" target="32tMZFrnywZfzG7zDJy--81">
          <mxGeometry relative="1" as="geometry" />
        </mxCell>
        <mxCell id="32tMZFrnywZfzG7zDJy--75" value="" style="rounded=0;whiteSpace=wrap;html=1;" vertex="1" parent="1">
          <mxGeometry x="692" y="440" width="150" height="82" as="geometry" />
        </mxCell>
        <mxCell id="32tMZFrnywZfzG7zDJy--76" value="" style="rounded=0;whiteSpace=wrap;html=1;" vertex="1" parent="1">
          <mxGeometry x="242" y="632" width="120" height="60" as="geometry" />
        </mxCell>
        <mxCell id="32tMZFrnywZfzG7zDJy--77" value="Wishlist" style="rounded=0;whiteSpace=wrap;html=1;" vertex="1" parent="1">
          <mxGeometry x="710" y="453" width="120" height="48" as="geometry" />
        </mxCell>
        <mxCell id="32tMZFrnywZfzG7zDJy--78" value="one to many" style="rhombus;whiteSpace=wrap;html=1;" vertex="1" parent="1">
          <mxGeometry x="719" y="207" width="80" height="80" as="geometry" />
        </mxCell>
        <mxCell id="32tMZFrnywZfzG7zDJy--79" value="product_id" style="ellipse;whiteSpace=wrap;html=1;" vertex="1" parent="1">
          <mxGeometry x="532" y="620" width="120" height="80" as="geometry" />
        </mxCell>
        <mxCell id="32tMZFrnywZfzG7zDJy--80" value="user_id" style="ellipse;whiteSpace=wrap;html=1;" vertex="1" parent="1">
          <mxGeometry x="710" y="622" width="120" height="80" as="geometry" />
        </mxCell>
        <mxCell id="32tMZFrnywZfzG7zDJy--81" value="Seller_id" style="ellipse;whiteSpace=wrap;html=1;" vertex="1" parent="1">
          <mxGeometry x="894" y="622" width="120" height="80" as="geometry" />
        </mxCell>
      </root>
    </mxGraphModel>
  </diagram>
</mxfile>
